<svg xmlns="http://www.w3.org/2000/svg" width="250" height="67.9" viewBox="0 0 51.2 13.9">
  <g fill="none" fill-rule="evenodd">
    <g fill="#999999">
      <path d="M15.06 10.28v-6.3h0.81l3.85 5.07V3.98h0.77v6.3h-0.81l-3.85 -5.12v5.12h-0.77zM26.76 10.03c-0.51 0.19 -1.06 0.29 -1.64 0.29 -2.28 0 -3.42 -1.09 -3.42 -3.28 0 -2.07 1.1 -3.11 3.3 -3.11 0.63 0 1.22 0.09 1.76 0.26v0.7c-0.54 -0.21 -1.1 -0.31 -1.67 -0.31 -1.72 0 -2.58 0.82 -2.58 2.44 0 1.75 0.85 2.62 2.54 2.62 0.27 0 0.57 -0.04 0.9 -0.11V7.42h0.81v2.61zM28.06 7.85V3.98h0.81v3.87c0 1.21 0.6 1.82 1.81 1.82 1.2 0 1.81 -0.61 1.81 -1.82V3.98h0.81v3.87c0 1.65 -0.87 2.48 -2.62 2.48s-2.62 -0.83 -2.62 -2.48zM35.56 3.98v5.64h3.3v0.66h-4.11v-6.3h0.81zM40.03 10.28h-0.85l3.13 -7.13 3.13 7.13h-0.9L43.73 8.3h-2.08l0.22 -0.66h1.59l-1.18 -2.85 -2.25 5.49zM46.31 10.28v-6.3H49c1.2 0 1.8 0.5 1.8 1.51 0 0.82 -0.59 1.43 -1.76 1.82l2.16 2.97h-1.07l-2 -2.83v-0.53c1.2 -0.19 1.81 -0.65 1.81 -1.39 0 -0.58 -0.33 -0.87 -1 -0.87h-1.8v5.62h-0.83z"/>
    </g>
    <path d="M0 2.3L6.45 0l6.62 2.26 -1.07 8.53 -5.55 3.07 -5.46 -3.03L0 2.3z" fill="#808080"/>
    <path d="M13.07 2.26L6.45 0v13.86l5.55 -3.07 1.07 -8.53z" fill="#999999"/>
    <path d="M6.46 1.62l-4.02 8.94 1.5 -0.03 0.81 -2.02H8.34l0.88 2.04 1.43 0.03 -4.19 -8.96zm0.01 2.87l1.36 2.84H5.28l1.19 -2.84z" fill="#FFF"/>
  </g>
</svg>